<svg width="30" height="36" viewBox="0 0 30 36" fill="none" xmlns="http://www.w3.org/2000/svg">
<path d="M27.72 15.04C27.66 15.04 27.59 15.05 27.51 15.07C27.45 15.09 27.37 15.11 27.27 15.13L26.4 15.28V31.03L27.27 31.18C27.37 31.2 27.45 31.22 27.51 31.24C27.59 31.26 27.66 31.27 27.72 31.27L27.9 31.3C28.4 31.42 28.65 31.73 28.65 32.23V34H20.13V32.23C20.13 31.73 20.38 31.42 20.88 31.3L22.83 31.03V19.99L22.86 19.15C22.86 18.95 22.88 18.63 22.92 18.19L16.38 30.49C16.22 30.79 16.02 31.01 15.78 31.15C15.52 31.31 15.24 31.39 14.94 31.39H14.4C14.1 31.39 13.82 31.31 13.56 31.15C13.32 31.01 13.12 30.79 12.96 30.49L6.33 18.16L6.39 19.12C6.41 19.32 6.42 19.61 6.42 19.99V31.03L8.37 31.3C8.87 31.42 9.12 31.73 9.12 32.23V34H0.6V32.23C0.6 31.73 0.85 31.42 1.35 31.3L1.53 31.27L1.98 31.18L2.88 31.03V15.28L1.98 15.13C1.88 15.11 1.79 15.09 1.71 15.07C1.65 15.05 1.59 15.04 1.53 15.04L1.35 15.01C0.85 14.89 0.6 14.58 0.6 14.08V12.31H5.91L6.39 12.34C6.51 12.34 6.63 12.36 6.75 12.4C6.81 12.42 6.9 12.49 7.02 12.61C7.1 12.69 7.19 12.81 7.29 12.97L13.77 25C13.89 25.22 13.98 25.42 14.04 25.6C14.12 25.76 14.18 25.89 14.22 25.99L14.67 27.04L15.09 25.99C15.25 25.59 15.41 25.25 15.57 24.97L21.99 12.97C22.11 12.77 22.19 12.65 22.23 12.61C22.35 12.49 22.45 12.42 22.53 12.4C22.69 12.36 22.81 12.34 22.89 12.34L23.34 12.31H28.65V14.08C28.65 14.58 28.4 14.89 27.9 15.01L27.72 15.04Z" fill="#F6F6F6"/>
<path d="M26.7 7.08C26.7 7.58 26.45 7.89 25.95 8.01L25.77 8.04C25.73 8.04 25.67 8.05 25.59 8.07C25.53 8.09 25.45 8.11 25.35 8.13L24.48 8.28L16.92 27H13.29L5.7 8.28L4.86 8.13C4.76 8.11 4.67 8.09 4.59 8.07C4.53 8.05 4.47 8.04 4.41 8.04L4.23 8.01C3.73 7.89 3.48 7.58 3.48 7.08V5.31H11.58V7.08C11.58 7.58 11.33 7.89 10.83 8.01C10.77 8.01 10.72 8.02 10.68 8.04L10.38 8.13L9.9 8.25L14.22 19.47C14.36 19.79 14.52 20.26 14.7 20.88L15.15 22.5C15.39 21.4 15.68 20.39 16.02 19.47L20.31 8.25L19.83 8.13L19.5 8.04C19.46 8.02 19.41 8.01 19.35 8.01C18.85 7.89 18.6 7.58 18.6 7.08V5.31H26.7V7.08Z" fill="#F6F6F6"/>
</svg>
