<svg width="92" height="15" viewBox="0 0 92 15" fill="none" xmlns="http://www.w3.org/2000/svg">
<path d="M8.48736 1.33542L10.1909 4.77471C10.2297 4.86201 10.2906 4.93762 10.3677 4.99402C10.4448 5.05041 10.5353 5.08563 10.6302 5.09614L14.3909 5.65328C14.4999 5.66727 14.6025 5.71196 14.6869 5.78213C14.7714 5.85229 14.8341 5.94503 14.8678 6.04951C14.9015 6.15399 14.9048 6.26591 14.8772 6.37219C14.8498 6.47847 14.7926 6.57472 14.7123 6.64971L12.0016 9.339C11.9325 9.40364 11.8805 9.48454 11.8506 9.57437C11.8206 9.66419 11.8137 9.76007 11.8302 9.85328L12.4838 13.6354C12.5027 13.7441 12.4907 13.8559 12.4493 13.9581C12.4078 14.0603 12.3385 14.1488 12.2491 14.2136C12.1599 14.2783 12.0541 14.3167 11.9441 14.3244C11.834 14.332 11.724 14.3087 11.6266 14.2568L8.24093 12.4675C8.15424 12.425 8.05893 12.4029 7.96236 12.4029C7.86578 12.4029 7.77048 12.425 7.68378 12.4675L4.29807 14.2568C4.20067 14.3087 4.09068 14.332 3.98064 14.3244C3.87059 14.3167 3.7649 14.2783 3.67559 14.2136C3.58628 14.1488 3.51693 14.0603 3.47545 13.9581C3.43397 13.8559 3.42201 13.7441 3.44093 13.6354L4.0945 9.81042C4.11106 9.71721 4.10406 9.62133 4.07412 9.53151C4.04418 9.44168 3.99225 9.36078 3.92307 9.29614L1.18022 6.64971C1.09907 6.57267 1.042 6.47375 1.01593 6.36495C0.989854 6.25613 0.995892 6.14209 1.03331 6.03664C1.07073 5.93119 1.13792 5.83885 1.22675 5.77081C1.31558 5.70277 1.42223 5.66194 1.53378 5.65328L5.2945 5.09614C5.38943 5.08563 5.47994 5.05041 5.55702 4.99402C5.6341 4.93762 5.69504 4.86201 5.73378 4.77471L7.43736 1.33542C7.48375 1.23526 7.55783 1.15045 7.65086 1.09101C7.74388 1.03158 7.85197 1 7.96236 1C8.07275 1 8.18084 1.03158 8.27386 1.09101C8.36688 1.15045 8.44096 1.23526 8.48736 1.33542Z" stroke="white" stroke-linecap="round" stroke-linejoin="round"/>
<path d="M27.4874 1.33542L29.1909 4.77471C29.2297 4.86201 29.2906 4.93762 29.3677 4.99402C29.4448 5.05041 29.5353 5.08563 29.6302 5.09614L33.3909 5.65328C33.4999 5.66727 33.6025 5.71196 33.6869 5.78213C33.7714 5.85229 33.8341 5.94503 33.8678 6.04951C33.9015 6.15399 33.9048 6.26591 33.8772 6.37219C33.8498 6.47847 33.7926 6.57472 33.7123 6.64971L31.0016 9.339C30.9325 9.40364 30.8805 9.48454 30.8506 9.57437C30.8206 9.66419 30.8137 9.76007 30.8302 9.85328L31.4838 13.6354C31.5027 13.7441 31.4907 13.8559 31.4493 13.9581C31.4078 14.0603 31.3385 14.1488 31.2491 14.2136C31.1599 14.2783 31.0541 14.3167 30.9441 14.3244C30.834 14.332 30.724 14.3087 30.6266 14.2568L27.2409 12.4675C27.1542 12.425 27.0589 12.4029 26.9624 12.4029C26.8658 12.4029 26.7705 12.425 26.6838 12.4675L23.2981 14.2568C23.2007 14.3087 23.0907 14.332 22.9806 14.3244C22.8706 14.3167 22.7649 14.2783 22.6756 14.2136C22.5863 14.1488 22.5169 14.0603 22.4754 13.9581C22.434 13.8559 22.422 13.7441 22.4409 13.6354L23.0945 9.81042C23.1111 9.71721 23.1041 9.62133 23.0741 9.53151C23.0442 9.44168 22.9923 9.36078 22.9231 9.29614L20.1802 6.64971C20.0991 6.57267 20.042 6.47375 20.0159 6.36495C19.9899 6.25613 19.9959 6.14209 20.0333 6.03664C20.0707 5.93119 20.1379 5.83885 20.2267 5.77081C20.3156 5.70277 20.4222 5.66194 20.5338 5.65328L24.2945 5.09614C24.3894 5.08563 24.4799 5.05041 24.557 4.99402C24.6341 4.93762 24.695 4.86201 24.7338 4.77471L26.4374 1.33542C26.4837 1.23526 26.5578 1.15045 26.6509 1.09101C26.7439 1.03158 26.852 1 26.9624 1C27.0727 1 27.1808 1.03158 27.2739 1.09101C27.3669 1.15045 27.441 1.23526 27.4874 1.33542Z" stroke="white" stroke-linecap="round" stroke-linejoin="round"/>
<path d="M46.4874 1.33542L48.1909 4.77471C48.2297 4.86201 48.2906 4.93762 48.3677 4.99402C48.4448 5.05041 48.5353 5.08563 48.6302 5.09614L52.3909 5.65328C52.4999 5.66727 52.6025 5.71196 52.6869 5.78213C52.7714 5.85229 52.8341 5.94503 52.8678 6.04951C52.9015 6.15399 52.9048 6.26591 52.8772 6.37219C52.8498 6.47847 52.7926 6.57472 52.7123 6.64971L50.0016 9.339C49.9325 9.40364 49.8805 9.48454 49.8506 9.57437C49.8206 9.66419 49.8137 9.76007 49.8302 9.85328L50.4838 13.6354C50.5027 13.7441 50.4907 13.8559 50.4493 13.9581C50.4078 14.0603 50.3385 14.1488 50.2491 14.2136C50.1599 14.2783 50.0541 14.3167 49.9441 14.3244C49.834 14.332 49.724 14.3087 49.6266 14.2568L46.2409 12.4675C46.1542 12.425 46.0589 12.4029 45.9624 12.4029C45.8658 12.4029 45.7705 12.425 45.6838 12.4675L42.2981 14.2568C42.2007 14.3087 42.0907 14.332 41.9806 14.3244C41.8706 14.3167 41.7649 14.2783 41.6756 14.2136C41.5863 14.1488 41.5169 14.0603 41.4754 13.9581C41.434 13.8559 41.422 13.7441 41.4409 13.6354L42.0945 9.81042C42.1111 9.71721 42.1041 9.62133 42.0741 9.53151C42.0442 9.44168 41.9923 9.36078 41.9231 9.29614L39.1802 6.64971C39.0991 6.57267 39.042 6.47375 39.0159 6.36495C38.9899 6.25613 38.9959 6.14209 39.0333 6.03664C39.0707 5.93119 39.1379 5.83885 39.2267 5.77081C39.3156 5.70277 39.4222 5.66194 39.5338 5.65328L43.2945 5.09614C43.3894 5.08563 43.4799 5.05041 43.557 4.99402C43.6341 4.93762 43.695 4.86201 43.7338 4.77471L45.4374 1.33542C45.4837 1.23526 45.5578 1.15045 45.6509 1.09101C45.7439 1.03158 45.852 1 45.9624 1C46.0727 1 46.1808 1.03158 46.2739 1.09101C46.3669 1.15045 46.441 1.23526 46.4874 1.33542Z" stroke="white" stroke-linecap="round" stroke-linejoin="round"/>
<path d="M65.4874 1.33542L67.1909 4.77471C67.2297 4.86201 67.2906 4.93762 67.3677 4.99402C67.4448 5.05041 67.5353 5.08563 67.6302 5.09614L71.3909 5.65328C71.4999 5.66727 71.6025 5.71196 71.6869 5.78213C71.7714 5.85229 71.8341 5.94503 71.8678 6.04951C71.9015 6.15399 71.9048 6.26591 71.8772 6.37219C71.8498 6.47847 71.7926 6.57472 71.7123 6.64971L69.0016 9.339C68.9325 9.40364 68.8805 9.48454 68.8506 9.57437C68.8206 9.66419 68.8137 9.76007 68.8302 9.85328L69.4838 13.6354C69.5027 13.7441 69.4907 13.8559 69.4493 13.9581C69.4078 14.0603 69.3385 14.1488 69.2491 14.2136C69.1599 14.2783 69.0541 14.3167 68.9441 14.3244C68.834 14.332 68.724 14.3087 68.6266 14.2568L65.2409 12.4675C65.1542 12.425 65.0589 12.4029 64.9624 12.4029C64.8658 12.4029 64.7705 12.425 64.6838 12.4675L61.2981 14.2568C61.2007 14.3087 61.0907 14.332 60.9806 14.3244C60.8706 14.3167 60.7649 14.2783 60.6756 14.2136C60.5863 14.1488 60.5169 14.0603 60.4754 13.9581C60.434 13.8559 60.422 13.7441 60.4409 13.6354L61.0945 9.81042C61.1111 9.71721 61.1041 9.62133 61.0741 9.53151C61.0442 9.44168 60.9923 9.36078 60.9231 9.29614L58.1802 6.64971C58.0991 6.57267 58.042 6.47375 58.0159 6.36495C57.9899 6.25613 57.9959 6.14209 58.0333 6.03664C58.0707 5.93119 58.1379 5.83885 58.2267 5.77081C58.3156 5.70277 58.4222 5.66194 58.5338 5.65328L62.2945 5.09614C62.3894 5.08563 62.4799 5.05041 62.557 4.99402C62.6341 4.93762 62.695 4.86201 62.7338 4.77471L64.4374 1.33542C64.4837 1.23526 64.5578 1.15045 64.6509 1.09101C64.7439 1.03158 64.852 1 64.9624 1C65.0727 1 65.1808 1.03158 65.2739 1.09101C65.3669 1.15045 65.441 1.23526 65.4874 1.33542Z" stroke="white" stroke-linecap="round" stroke-linejoin="round"/>
<path d="M84.4874 1.33542L86.1909 4.77471C86.2297 4.86201 86.2906 4.93762 86.3677 4.99402C86.4448 5.05041 86.5353 5.08563 86.6302 5.09614L90.3909 5.65328C90.4999 5.66727 90.6025 5.71196 90.6869 5.78213C90.7714 5.85229 90.8341 5.94503 90.8678 6.04951C90.9015 6.15399 90.9048 6.26591 90.8772 6.37219C90.8498 6.47847 90.7926 6.57472 90.7123 6.64971L88.0016 9.339C87.9325 9.40364 87.8805 9.48454 87.8506 9.57437C87.8206 9.66419 87.8137 9.76007 87.8302 9.85328L88.4838 13.6354C88.5027 13.7441 88.4907 13.8559 88.4493 13.9581C88.4078 14.0603 88.3385 14.1488 88.2491 14.2136C88.1599 14.2783 88.0541 14.3167 87.9441 14.3244C87.834 14.332 87.724 14.3087 87.6266 14.2568L84.2409 12.4675C84.1542 12.425 84.0589 12.4029 83.9624 12.4029C83.8658 12.4029 83.7705 12.425 83.6838 12.4675L80.2981 14.2568C80.2007 14.3087 80.0907 14.332 79.9806 14.3244C79.8706 14.3167 79.7649 14.2783 79.6756 14.2136C79.5863 14.1488 79.5169 14.0603 79.4754 13.9581C79.434 13.8559 79.422 13.7441 79.4409 13.6354L80.0945 9.81042C80.1111 9.71721 80.1041 9.62133 80.0741 9.53151C80.0442 9.44168 79.9923 9.36078 79.9231 9.29614L77.1802 6.64971C77.0991 6.57267 77.042 6.47375 77.0159 6.36495C76.9899 6.25613 76.9959 6.14209 77.0333 6.03664C77.0707 5.93119 77.1379 5.83885 77.2267 5.77081C77.3156 5.70277 77.4222 5.66194 77.5338 5.65328L81.2945 5.09614C81.3894 5.08563 81.4799 5.05041 81.557 4.99402C81.6341 4.93762 81.695 4.86201 81.7338 4.77471L83.4374 1.33542C83.4837 1.23526 83.5578 1.15045 83.6509 1.09101C83.7439 1.03158 83.852 1 83.9624 1C84.0727 1 84.1808 1.03158 84.2739 1.09101C84.3669 1.15045 84.441 1.23526 84.4874 1.33542Z" stroke="white" stroke-linecap="round" stroke-linejoin="round"/>
</svg>
